<?xml version="1.0" encoding="utf-8"?>
<!-- Generator: Adobe Illustrator 15.0.0, SVG Export Plug-In . SVG Version: 6.00 Build 0)  -->
<svg version="1.2" baseProfile="tiny" id="Layer_1" xmlns="http://www.w3.org/2000/svg" xmlns:xlink="http://www.w3.org/1999/xlink"
	 x="0px" y="0px" width="137px" height="37px" viewBox="0 0 137 37" overflow="inherit" xml:space="preserve">
<path fill="#FFFFFF" d="M128.561,28.771c-1.134,1.052-2.462,1.578-3.986,1.578c-1.996,0-3.464-0.678-4.406-2.033
	c-0.941-1.355-1.412-3.263-1.412-5.721v-6.193h-2.758l-0.102-0.228c0.794-2.058,2.096-3.881,3.784-5.301
	c1.716-1.457,3.694-2.427,5.937-2.908l0.202,0.152v5.777l4.709-2.623l0.202,0.152l-0.842,4.979l-4.069-0.228v5.017
	c0,1.316,0.219,2.298,0.655,2.945c0.438,0.645,1.104,0.968,2.002,0.968c0.383,0,0.762-0.085,1.109-0.246
	c0.357-0.165,0.674-0.336,0.942-0.515l0.235,0.153C130.428,26.297,129.692,27.722,128.561,28.771z M113.643,28.583
	c-1.457,1.178-3.419,1.767-5.887,1.767c-1.39,0-2.735-0.189-4.035-0.57c-1.301-0.38-2.445-0.925-3.43-1.635l2.286-4.18h0.167
	c0.674,1.368,1.48,2.483,2.422,3.345c0.941,0.86,1.826,1.291,2.658,1.291c0.448,0,0.801-0.118,1.059-0.36
	c0.258-0.24,0.388-0.563,0.388-0.969c0.01-0.586-0.222-1.148-0.64-1.559c-0.426-0.431-1.267-1-2.523-1.709l-0.873-0.494
	c-1.145-0.658-2.041-1.274-2.691-1.844c-0.65-0.57-1.115-1.172-1.396-1.806c-0.28-0.633-0.421-1.368-0.421-2.204
	c0-1.242,0.325-2.318,0.975-3.23c0.651-0.912,1.588-1.627,2.81-2.146c1.222-0.521,2.696-0.78,4.423-0.78
	c1.324,0,2.596,0.152,3.817,0.457c1.223,0.304,2.305,0.747,3.247,1.33l-2.894,3.306h-0.202c-0.538-1.115-1.143-1.951-1.815-2.509
	c-0.673-0.556-1.401-0.835-2.187-0.835c-0.471,0-0.857,0.12-1.161,0.361c-0.292,0.22-0.46,0.566-0.454,0.932
	c0,0.329,0.096,0.633,0.287,0.911c0.189,0.279,0.531,0.584,1.025,0.913c0.492,0.329,1.189,0.747,2.086,1.253l1.176,0.646
	c1.392,0.787,2.4,1.61,3.027,2.47c0.627,0.862,0.943,1.887,0.943,3.079C115.83,25.814,115.1,27.404,113.643,28.583L113.643,28.583z
	 M97.667,11.272l0.202,0.115V25.75l1.009,3.991v0.229h-9.081v-0.229l1.009-3.991v-8.74L89.797,13.4v-0.228L97.667,11.272
	L97.667,11.272z M94.201,3.367c1.121,0,2.051,0.312,2.791,0.932c0.74,0.621,1.11,1.451,1.11,2.489c0,1.064-0.37,1.901-1.11,2.508
	c-0.74,0.608-1.67,0.912-2.791,0.912c-1.076,0-1.99-0.304-2.74-0.912c-0.753-0.608-1.128-1.444-1.128-2.508
	c0-1.039,0.375-1.868,1.127-2.489C92.211,3.679,93.125,3.367,94.201,3.367z M87.645,29.97h-9.083v-0.229l1.009-3.991V9.105
	l-1.009-3.61V5.269l7.872-1.901l0.201,0.115V25.75l1.01,3.991V29.97z M76.41,29.97h-9.083v-0.229l1.009-3.991V9.105l-1.009-3.61
	V5.269l7.872-1.901L75.4,3.482V25.75l1.01,3.991V29.97z M63.965,11.272l0.202,0.115V25.75l1.009,3.991v0.229h-9.081v-0.229
	l1.009-3.991v-8.74L56.095,13.4v-0.228L63.965,11.272L63.965,11.272z M60.5,3.367c1.121,0,2.052,0.312,2.792,0.932
	c0.74,0.621,1.11,1.451,1.11,2.489c0,1.064-0.37,1.901-1.11,2.508c-0.74,0.608-1.671,0.912-2.792,0.912
	c-1.076,0-1.99-0.304-2.74-0.912c-0.753-0.608-1.128-1.444-1.128-2.508c0-1.039,0.375-1.868,1.127-2.489
	C58.51,3.679,59.424,3.367,60.5,3.367z M53.841,18.15h-0.202c-0.27-0.288-0.589-0.525-0.942-0.703
	c-0.346-0.167-0.726-0.251-1.11-0.248c-0.427,0-0.87,0.083-1.329,0.248c-0.381,0.137-0.733,0.324-1.06,0.555v7.747l1.514,3.991
	v0.229h-9.586v-0.229l1.009-3.991v-8.74L41.126,13.4v-0.228l7.87-1.901l0.202,0.115v4.85c0.51-1.47,1.142-2.611,1.901-3.426
	c0.864-0.924,1.845-1.387,2.944-1.387c0.246,0,0.504,0.044,0.773,0.134s0.482,0.196,0.639,0.323L53.841,18.15z M39.04,29.97h-9.08
	v-0.229l1.009-3.991v-4.939c0-1.443-0.213-2.47-0.639-3.077c-0.427-0.609-0.988-0.914-1.682-0.914c-0.426,0-0.824,0.096-1.194,0.286
	c-0.271,0.136-0.516,0.319-0.723,0.541v8.104l1.009,3.991v0.229h-9.083v-0.229l1.009-3.991V9.105l-1.009-3.61V5.269l7.872-1.901
	l0.202,0.115v12.591c0.164-0.574,0.396-1.126,0.69-1.646c0.52-0.931,1.258-1.72,2.152-2.3c0.886-0.569,1.877-0.855,2.977-0.855
	c1.233,0,2.253,0.368,3.061,1.102c0.807,0.735,1.413,1.742,1.816,3.021c0.404,1.28,0.605,2.718,0.605,4.313v6.043l1.009,3.989V29.97
	z M14.705,28.771c-1.132,1.052-2.46,1.578-3.986,1.578c-1.997,0-3.464-0.678-4.406-2.033S4.9,25.054,4.9,22.596v-6.193H2.143
	l-0.101-0.228c0.794-2.058,2.095-3.881,3.784-5.299c1.714-1.458,3.695-2.428,5.937-2.91l0.202,0.152v5.777l4.709-2.623l0.202,0.152
	l-0.841,4.979l-4.069-0.229v5.017c0,1.317,0.219,2.299,0.656,2.945s1.104,0.969,2.001,0.969c0.38,0,0.75-0.082,1.109-0.246
	c0.359-0.165,0.673-0.336,0.942-0.514l0.235,0.152C16.573,26.295,15.838,27.721,14.705,28.771L14.705,28.771z M132.85,23.217
	l-0.997-0.645v-0.615l3.762,0.21l1.314-7.779l-4.149-4.16l-2.096-1.583l-4.621-3.087l-0.842,0.181
	c-3.421,0.722-6.493,2.589-8.708,5.295c-1.041-0.574-2.153-1.008-3.308-1.291c-1.398-0.344-2.832-0.516-4.271-0.512
	c-1.824,0-3.441,0.271-4.822,0.798c-0.113-1.232-0.62-2.301-1.481-3.137c-0.06-0.064-4.259-4.28-4.429-4.421
	c-1.083-0.91-2.429-1.372-3.998-1.372c-1.52,0-2.847,0.459-3.94,1.364c-0.235,0.196-0.452,0.414-0.647,0.649L88.52,1.997
	l-1.809-1.021l-8.482,2.048l-0.942-1.027l-1.809-1.021L65.452,3.398c-0.311-0.315-0.627-0.625-0.951-0.928
	c-1.085-0.91-2.432-1.372-4.001-1.372c-1.519,0-2.845,0.459-3.94,1.363c-1.186,0.981-1.813,2.347-1.813,3.95
	c0,1.186,0.337,2.234,0.977,3.09c-0.532-0.226-1.103-0.343-1.681-0.346c-1.038,0-2.056,0.292-2.936,0.843l-0.021-0.095l-1.807-1.021
	l-10.036,2.423v1.654c-0.785-0.791-1.573-1.579-2.364-2.363c-1.112-1.012-2.496-1.54-4.112-1.584V6.157l-4.149-4.16l-1.808-1.021
	L16.772,3.399v1.979l1.009,3.611v0.375l-3.931-2.57l-1.644-1.235l-0.839,0.181C8.874,6.263,6.55,7.401,4.608,9.052
	c-1.927,1.624-3.413,3.708-4.322,6.058L0,15.844l0.917,2.071l2.074,2.081h0.023v2.221c0,2.842,0.589,5.13,1.752,6.801
	c0.226,0.326,0.507,0.67,0.854,0.999c0.062,0.062,3.895,3.908,3.961,3.971c1.019,1.055,2.668,2.036,5.286,2.036
	c1.814,0,3.433-0.576,4.824-1.705l1.229,1.324h83.991v-1.233c0.757,0.386,1.563,0.714,2.429,0.968
	c1.483,0.432,3.02,0.648,4.564,0.646c2.896,0,5.274-0.736,7.07-2.188c0.806-0.644,1.473-1.443,1.963-2.352
	c0.016,0.015,2.432,2.442,2.498,2.504c1.02,1.054,2.67,2.035,5.287,2.035c2.008,0,3.779-0.701,5.268-2.082
	c1.43-1.327,2.364-3.115,2.773-5.312l0.236-1.25L132.85,23.217L132.85,23.217z"/>
</svg>
