<?xml version="1.0" encoding="utf-8"?>
<!-- Generator: Adobe Illustrator 15.0.0, SVG Export Plug-In . SVG Version: 6.00 Build 0)  -->
<svg version="1.2" baseProfile="tiny" id="Layer_1" xmlns="http://www.w3.org/2000/svg" xmlns:xlink="http://www.w3.org/1999/xlink"
	 x="0px" y="0px" width="514px" height="80px" viewBox="0 0 514 80" overflow="inherit" xml:space="preserve">
<path fill="#FFFFFF" d="M66.7,63.1V15.3c0-2-0.1-6.4,5.5-6.4h0.9V0H43.8v8.9h0.9c4.5,0,5.5,2,5.5,6.4v15.3H22.8V15.3
	c0-2,0.3-6.4,5.5-6.4h0.9V0H0v8.9h0.9c4.5,0,5.5,2,5.5,6.4v47.8c0,5.2-3.8,6.5-5.5,6.5H0v8.9h29.2v-8.9h-0.9c-4.7,0-5.5-3.8-5.5-6.5
	V44h27.4v19c0,5.2-3.9,6.5-5.5,6.5h-0.9v8.9H73v-8.9h-0.9C67.1,69.6,66.7,65.8,66.7,63.1z M113,47.6c0-10.5-4.9-19.1-11.8-19.1
	c-6.9,0-11.8,8.5-11.8,19.1c0,10.5,4.9,19.101,11.8,19.101C108.1,66.7,113,58.1,113,47.6z M101.2,15.4c18.1,0,29.1,14.4,29.1,32.2
	c0,17.801-11,32.2-29.1,32.2c-18.1,0-29.1-14.399-29.1-32.2C72.2,29.8,83.2,15.4,101.2,15.4z M189.1,62.1V17h-21.3v8.8
	c4.8,0,5.5,2.6,5.5,7.9v16.7c-5,6.399-11.1,13.3-17.2,13.3c-4.7,0-4.6-2.7-4.6-29.8V17h-21.2v8.8c4.8,0,5.5,2.6,5.5,7.9V57
	c0,8.3,0,22.8,15.3,22.8c11.5,0,17.7-6.8,22.2-12.3v10.9h21.3V69.6C190,69.6,189.1,68.6,189.1,62.1z M212.6,32.9
	c0-3.6,4-5.2,7.5-5.2c8.4,0,9.2,5.7,9.7,7.6h9.3V17c-7.9,0-14.3-1.4-21.4-1.4c-11.6,0-21.3,6.7-21.3,19.1
	c0,23,30.3,16.6,30.3,27.399c0,4.101-3.3,6.7-7.6,6.7c-10.2,0-10.7-4.6-11.5-10h-9.8v19.7c9.7,0,11.6,1.4,22.5,1.4
	c13.9,0,22.7-7.601,22.7-20.4C242.9,36.4,212.6,43.5,212.6,32.9z M270.8,67.1c-5.7,0-5.7-3.1-5.7-15.899V27.6H278.9V17H265.1V0
	h-15.8v17h-7v10.6h7V64c0,9.9,6.1,15.9,16.101,15.9c8.5,0,14-3.801,16.699-6.101l-4.8-9.3C275.2,65.5,273.1,67.1,270.8,67.1z
	 M320.3,47.6c0-10.5-4.899-19.1-11.8-19.1s-11.8,8.5-11.8,19.1c0,10.5,4.899,19.101,11.8,19.101S320.3,58.2,320.3,47.6z M308.6,15.4
	c18.101,0,29.101,14.4,29.101,32.2c0,17.801-11,32.2-29.101,32.2c-18.1,0-29.1-14.399-29.1-32.2C279.5,29.8,290.5,15.4,308.6,15.4z
	 M410.6,11.5h15.7V0h-15.7V11.5z M426.3,62.1V17h-21.2v8.8c4.801,0,5.5,2.6,5.5,7.9V62c0,6.5-0.899,7.6-5.5,7.6V78.4h26.7V69.6
	C427.2,69.6,426.3,68.6,426.3,62.1z M396.4,61.7V38.4c0-8.3,0-22.8-15.301-22.8c-11.5,0-17.699,6.8-22.199,12.3V17H337.6v8.8
	c4.601,0,5.5,1,5.5,7.6v28.3c0,0,0.301,7.899-5.5,7.899V78.4H364.4V69.6c-4.801,0-5.5-2.6-5.5-7.899V45c5-6.4,11.1-13.3,17.199-13.3
	c4.7,0,4.601,2.8,4.601,30c0,0,0.3,7.899-5.7,7.899V78.4h26.8V69.6C397.1,69.7,396.4,67.1,396.4,61.7z M469.4,51.4
	c-1.9-0.4-3.7-0.4-5.5-0.5c-4.9-0.4-14,0.1-14.2,9.3c0,3.6,2.2,6.5,6.399,6.5C466.7,66.7,469.2,56.4,469.4,51.4z M484.6,61.4
	c0,6,0.7,8.199,5.5,8.199V78.4h-19.3v-8.2c-4.5,6.3-10.1,9.6-17.3,9.7c-11.2,0-20.4-6.4-20.4-20.601c0-12.3,11-20.8,22.801-21.6
	c6-0.4,8.8-0.3,13.399,0.3c0-3.3,0-9.2-10.1-9.2c-7.8,0-14.9,2.6-20.601,4.2V19.3c4.801-1.5,12.601-4,22.801-4
	c20.3,0.9,23.199,9.2,23.199,20.1V61.4z M513.8,67.4l-0.3,0.6v0.4l0.2,0.5l-0.4,0.699l0.101,0.2l-1.601,0.9l0.2-0.4l-0.6-0.1
	l-0.101,0.6l-0.399,0.7l-1.4,1l-0.4,0.1v-0.3l-0.399,0.2l-0.3-0.1l0.3,0.5l-0.4,0.3l-0.2-0.3V73.3l-0.399,0.3l-0.4,0.601l-0.2-0.101
	L506.9,74.4l0.3,0.1l-0.3,0.9l-0.4,0.1l0.3,0.1v0.5l-0.1,0.2l0.1,0.2l0.101,0.6l-0.101,0.2l0.3,0.601l0.2,0.1v0.2l-0.5,0.3L506,78
	l-1.5-0.4l-1-0.399l-0.8-1.9v-0.7l-0.5-0.3l-1-1.399l-0.601-1.4L499.2,70H498l-0.7,0.3L496.9,71.4l-0.5,0.5L495.8,71.8L493.9,70.4
	l-0.301-1.2l-0.5-1l-2-1.7l-0.8-0.9v-0.3h6.7v-9.1h5.2V60l2.7,1l2.3,0.5l0.899-0.1L508.7,61.6l1.2-0.399h1l1.199,0.5h0.7L513,65
	l0.4,0.8l0.6,0.8V67.4H513.8z"/>
</svg>
