<?xml version="1.0" encoding="utf-8"?>
<!-- Generator: Adobe Illustrator 15.0.0, SVG Export Plug-In . SVG Version: 6.00 Build 0)  -->
<svg version="1.2" baseProfile="tiny" id="Layer_1" xmlns:serif="http://www.serif.com/"
	 xmlns="http://www.w3.org/2000/svg" xmlns:xlink="http://www.w3.org/1999/xlink" x="0px" y="0px" width="1080px" height="218px"
	 viewBox="0 428.5 1080 218" overflow="inherit" xml:space="preserve">
<g id="NAVIGATION" transform="matrix(2.66667,0,0,2.66667,0,0)">
	<g transform="matrix(1,0,0,1,26.2178,28.4421)">
		<path fill="#FFFFFF" d="M12.543,159.108c-1.425-2.297-4.472-7.077-12.601-7.077c-6.702,0-13.589,3.849-13.589,13.347
			c0,7.133,6.08,12.535,14.027,12.535c5.272,0,9.802-1.552,13.215-7.448l4.351,2.417c-2.859,4.965-7.581,9.308-17.692,9.308
			c-11.669,0-18.931-7.572-18.931-17.315c0-11.169,8.566-17.128,18.619-17.128c9.81,0,14.465,4.657,16.946,8.88L12.543,159.108z"/>
	</g>
	<g transform="matrix(1,0,0,1,57.5981,14.1017)">
		<path fill="#FFFFFF" d="M27.335,195.542h-5.026v-4.72c-3.414,2.981-7.89,5.708-13.655,5.708c-4.036,0-13.407-0.93-13.407-12.033
			V163.08h5.031v20.421c-0.131,7.693,5.456,8.751,8.99,8.751c5.528,0,10.125-3.414,13.041-6.52V163.08h5.026V195.542z"/>
	</g>
	<g transform="matrix(1,0,0,1,-6,-25.681)">
		<rect x="101.228" y="190.202" fill="#FFFFFF" width="5.031" height="45.123"/>
	</g>
	<g transform="matrix(1,0,0,1,89.228,25.9148)">
		<path fill="#FFFFFF" d="M42.245,155.551h-12.91v19.612c0,3.539,1.554,5.276,6.643,5.276c2.419,0,4.408-0.437,7.136-0.998v4.345
			c-3.602,0.559-6.142,0.93-8.19,0.93c-10.616,0-10.616-6.453-10.616-9.056v-20.109h-6.891v-4.283h6.891v-10.797h5.026v10.797h12.91
			V155.551z"/>
	</g>
	<g transform="matrix(1,0,0,1,116.392,14.1017)">
		<path fill="#FFFFFF" d="M55.05,195.542h-5.026v-4.72c-3.418,2.981-7.884,5.708-13.659,5.708c-4.032,0-13.404-0.93-13.404-12.033
			V163.08h5.026v20.421c-0.12,7.693,5.466,8.751,9.001,8.751c5.524,0,10.12-3.414,13.036-6.52V163.08h5.026V195.542z"/>
	</g>
	<g transform="matrix(1,0,0,1,123.562,34.8167)">
		<path fill="#FFFFFF" d="M58.43,142.365h5.022v6.769c2.917-3.29,7.011-7.763,13.528-7.763c1.121,0,2.053,0.065,2.984,0.25v5.028
			c-0.618-0.06-1.863-0.434-4.036-0.434c-7.141,0-12.292,8.251-12.476,9.187v19.425H58.43V142.365z"/>
	</g>
	<g transform="matrix(1,0,0,1,162.7,26.6726)">
		<path fill="#FFFFFF" d="M76.879,163.48c-0.995-5.337-5.583-9.679-13.282-9.679c-7.384,0-11.54,3.721-12.973,9.679H76.879z
			 M81.408,176.204c-3.352,3.54-6.577,7.754-17.623,7.754c-10.927,0-18.372-7.447-18.372-17.373
			c0-10.303,7.759-17.071,17.748-17.071c10.367,0,19.424,5.403,19.183,18.245H50.44c0.497,6.082,5.401,11.921,13.838,11.921
			c8.381,0,11.177-3.784,13.223-6.333L81.408,176.204z"/>
	</g>
	<g transform="matrix(1,0,0,1,171.934,34.8167)">
		<path fill="#00ACC8" d="M81.232,142.365h4.844v4.53c3.721-3.163,7.573-5.525,12.914-5.525c7.069,0,8.99,3.412,10.298,5.774
			c5.09-4.283,8.44-5.774,13.221-5.774c2.974,0,11.915,0.621,11.915,9.995v23.461h-5.026v-21.6c0-1.988,0-7.57-7.141-7.57
			c-5.649,0-9.805,3.721-11.915,5.709v23.461h-5.026v-21.6c0-1.988,0-7.57-7.015-7.57c-5.769,0-9.932,3.721-12.042,5.709v23.461
			h-5.026V142.365z"/>
	</g>
	<g transform="matrix(1,0,0,1,233.307,25.6183)">
		<path fill="#00ACC8" d="M110.163,166.087c-14.774,1.427-24.706,2.791-24.706,9.062c0,5.085,5.712,5.772,8.194,5.772
			c7.01,0,13.282-3.354,16.512-5.092V166.087z M115.184,178.997c0,1.924,0.25,3.29,0.559,5.028h-5.026
			c-0.246-0.993-0.616-2.609-0.616-3.912c-4.719,3.043-9.995,4.901-16.204,4.901c-5.335,0-13.223-1.486-13.223-9.864
			c0-11.235,16.826-11.673,29.49-13.162v-1.237c0-4.408-5.277-6.081-10.428-6.081c-8.63,0-11.671,3.598-13.284,5.459l-3.789-2.607
			c1.863-2.294,5.402-6.951,16.696-6.951c7.391,0,15.826,2.176,15.826,10.489V178.997z"/>
	</g>
	<g transform="matrix(1,0,0,1,247.473,27.1012)">
		<path fill="#00ACC8" d="M116.84,172.857c2.979,3.1,7.201,6.396,14.21,6.396c6.707,0,13.905-3.478,13.905-13.345
			c0-6.705-5.21-12.536-14.021-12.536c-5.403,0-10.99,3.534-14.094,6.889V172.857z M111.814,150.082h5.026v4.903
			c4.66-3.789,7.942-5.897,15.394-5.897c12.538,0,17.752,9.558,17.752,16.945c0,7.507-4.717,17.499-18.622,17.499
			c-6.702,0-10.048-2.169-14.524-5.458v15.893h-5.026V150.082z"/>
	</g>
	<g transform="matrix(1,0,0,1,60.3169,54.9469)">
		<path fill="#FFFFFF" d="M28.617,169.795h1.639v5.731h10.64v-5.731h1.636v13.526h-1.636v-6.342h-10.64v6.342h-1.639V169.795z"/>
	</g>
	<g transform="matrix(1,0,0,1,89.8706,46.5104)">
		<path fill="#FFFFFF" d="M42.548,190.645c3.297,0,6.249-1.752,6.249-5.86c0-3.014-2.325-5.509-6.249-5.509
			c-3.924,0-6.249,2.495-6.249,5.509C36.299,188.893,39.22,190.645,42.548,190.645 M42.548,177.899c4.597,0,7.925,2.681,7.925,7.18
			c0,4.8-4.014,7.013-7.925,7.013c-3.902,0-7.92-2.213-7.92-7.013C34.627,180.58,37.951,177.899,42.548,177.899"/>
	</g>
	<g transform="matrix(1,0,0,1,119.424,49.7641)">
		<path fill="#FFFFFF" d="M56.479,182.939c0,4.898-3.812,5.9-6.961,5.9c-3.141,0-6.954-1.002-6.954-5.9v-7.96H44.2v7.96
			c0,3.109,1.994,4.526,5.318,4.526c3.337,0,5.322-1.417,5.322-4.526v-7.96h1.639V182.939z"/>
	</g>
	<g transform="matrix(1,0,0,1,134.845,48.3818)">
		<path fill="#FFFFFF" d="M63.748,186.02c0.775,1.04,2.083,2.754,6.133,2.754c2.088,0,4.932-0.6,4.932-2.701
			c0-4.111-11.796-0.502-11.796-5.987c0-2.884,2.662-4.059,6.345-4.059c3.574,0,5.769,1.468,6.698,2.77l-1.192,0.968
			c-0.556-0.63-1.855-2.36-5.546-2.36c-2.716,0-4.623,0.706-4.623,2.418c0,4.096,11.79,0.185,11.79,6.25
			c0,2.269-2.195,4.148-6.796,4.148c-4.421,0-6.06-1.841-7.217-3.121L63.748,186.02z"/>
	</g>
	<g transform="matrix(1,0,0,1,161.665,53.9577)">
		<path fill="#FFFFFF" d="M76.391,172.239h-6.527v-1.455h14.693v1.455H78.03v12.071h-1.639V172.239z"/>
	</g>
	<g transform="matrix(1,0,0,1,185.873,46.5104)">
		<path fill="#FFFFFF" d="M87.802,190.645c3.291,0,6.249-1.752,6.249-5.86c0-3.014-2.32-5.509-6.249-5.509
			c-3.924,0-6.253,2.495-6.253,5.509C81.549,188.893,84.468,190.645,87.802,190.645 M87.802,177.899c4.592,0,7.925,2.681,7.925,7.18
			c0,4.8-4.018,7.013-7.925,7.013c-3.906,0-7.929-2.213-7.929-7.013C79.873,180.58,83.206,177.899,87.802,177.899"/>
	</g>
	<g transform="matrix(1,0,0,1,205.927,54.9469)">
		<path fill="#FFFFFF" d="M97.256,169.795h2.329l10.062,11.127v-11.127h1.64v13.526h-1.64l-10.822-12.071v12.071h-1.568V169.795z"/>
	</g>
</g>
</svg>
