<svg xmlns="http://www.w3.org/2000/svg" xml:space="preserve" width="514" height="80"><path fill-rule="evenodd" d="M66.7 63.1V15.3c0-2-.1-6.4 5.5-6.4h.9V0H43.8v8.9h.9c4.5 0 5.5 2 5.5 6.4v15.3H22.8V15.3c0-2 .3-6.4 5.5-6.4h.9V0H0v8.9h.9c4.5 0 5.5 2 5.5 6.4v47.8c0 5.2-3.8 6.5-5.5 6.5H0v8.9h29.2v-8.9h-.9c-4.7 0-5.5-3.8-5.5-6.5V44h27.4v19c0 5.2-3.9 6.5-5.5 6.5h-.9v8.9H73v-8.9h-.9c-5 .1-5.4-3.7-5.4-6.4zM113 47.6c0-10.5-4.9-19.1-11.8-19.1S89.4 37 89.4 47.6c0 10.5 4.9 19.1 11.8 19.1S113 58.1 113 47.6zm-11.8-32.2c18.1 0 29.1 14.4 29.1 32.2 0 17.8-11 32.2-29.1 32.2S72.1 65.4 72.1 47.6c.1-17.8 11.1-32.2 29.1-32.2zm87.9 46.7V17h-21.3v8.8c4.8 0 5.5 2.6 5.5 7.9v16.7c-5 6.4-11.1 13.3-17.2 13.3-4.7 0-4.6-2.7-4.6-29.8V17h-21.2v8.8c4.8 0 5.5 2.6 5.5 7.9V57c0 8.3 0 22.8 15.3 22.8 11.5 0 17.7-6.8 22.2-12.3v10.9h21.3v-8.8c-4.6 0-5.5-1-5.5-7.5zm23.5-29.2c0-3.6 4-5.2 7.5-5.2 8.4 0 9.2 5.7 9.7 7.6h9.3V17c-7.9 0-14.3-1.4-21.4-1.4-11.6 0-21.3 6.7-21.3 19.1 0 23 30.3 16.6 30.3 27.4 0 4.1-3.3 6.7-7.6 6.7-10.2 0-10.7-4.6-11.5-10h-9.8v19.7c9.7 0 11.6 1.4 22.5 1.4 13.9 0 22.7-7.6 22.7-20.4-.1-23.1-30.4-16-30.4-26.6zm58.2 34.2c-5.7 0-5.7-3.1-5.7-15.9V27.6h13.8V17h-13.8V0h-15.8v17h-7v10.6h7V64c0 9.9 6.1 15.9 16.1 15.9 8.5 0 14-3.8 16.7-6.1l-4.8-9.3c-2.1 1-4.2 2.6-6.5 2.6zm49.5-19.5c0-10.5-4.9-19.1-11.8-19.1s-11.8 8.5-11.8 19.1c0 10.5 4.9 19.1 11.8 19.1s11.8-8.5 11.8-19.1zm-11.7-32.2c18.1 0 29.1 14.4 29.1 32.2 0 17.8-11 32.2-29.1 32.2s-29.1-14.4-29.1-32.2c0-17.8 11-32.2 29.1-32.2zm102-3.9h15.7V0h-15.7v11.5zm15.7 50.6V17h-21.2v8.8c4.8 0 5.5 2.6 5.5 7.9V62c0 6.5-.9 7.6-5.5 7.6v8.8h26.7v-8.8c-4.6 0-5.5-1-5.5-7.5zm-29.9-.4V38.4c0-8.3 0-22.8-15.3-22.8-11.5 0-17.7 6.8-22.2 12.3V17h-21.3v8.8c4.6 0 5.5 1 5.5 7.6v28.3s.3 7.9-5.5 7.9v8.8h26.8v-8.8c-4.8 0-5.5-2.6-5.5-7.9V45c5-6.4 11.1-13.3 17.2-13.3 4.7 0 4.6 2.8 4.6 30 0 0 .3 7.9-5.7 7.9v8.8h26.8v-8.8c-4.7.1-5.4-2.5-5.4-7.9zm73-10.3c-1.9-.4-3.7-.4-5.5-.5-4.9-.4-14 .1-14.2 9.3 0 3.6 2.2 6.5 6.4 6.5 10.6 0 13.1-10.3 13.3-15.3zm15.2 10c0 6 .7 8.2 5.5 8.2v8.8h-19.3v-8.2c-4.5 6.3-10.1 9.6-17.3 9.7-11.2 0-20.4-6.4-20.4-20.6 0-12.3 11-20.8 22.8-21.6 6-.4 8.8-.3 13.4.3 0-3.3 0-9.2-10.1-9.2-7.8 0-14.9 2.6-20.6 4.2V19.3c4.8-1.5 12.6-4 22.8-4 20.3.9 23.2 9.2 23.2 20.1v26zm29.2 6-.3.6v.4l.2.5-.4.7.1.2-1.6.9.2-.4-.6-.1-.1.6-.4.7-1.4 1-.4.1v-.3l-.4.2-.3-.1.3.5-.4.3-.2-.3v.4l-.4.3-.4.6-.2-.1-.2.3.3.1-.3.9-.4.1.3.1v.5l-.1.2.1.2.1.6-.1.2.3.6.2.1v.2l-.5.3-.8-.5-1.5-.4-1-.4-.8-1.9v-.7l-.5-.3-1-1.4-.6-1.4-1.4-1.5H498l-.7.3-.4 1.1-.5.5-.6-.1-1.9-1.4-.3-1.2-.5-1-2-1.7-.8-.9v-.3h6.7v-9.1h5.2V60l2.7 1 2.3.5.9-.1.6.2 1.2-.4h1l1.2.5h.7l.2 3.3.4.8.6.8v.8h-.2z" clip-rule="evenodd"/></svg>